HIERARCHY
ROOT hip
{
	OFFSET 0.000000 0.000000 0.000000 
	CHANNELS 6 Xposition Yposition Zposition Xrotation Zrotation Yrotation
	JOINT abdomen
	{
		OFFSET 0.000000 3.402643 0.000000 
		CHANNELS 3 Xrotation Zrotation Yrotation
		JOINT chest
		{
			OFFSET 0.000000 8.438565 -0.680529 
			CHANNELS 3 Xrotation Zrotation Yrotation
			JOINT neck
			{
				OFFSET 0.000000 10.207942 -0.272212 
				CHANNELS 3 Xrotation Zrotation Yrotation
				JOINT head
				{
					OFFSET 0.000000 3.130431 0.000000 
					CHANNELS 3 Xrotation Zrotation Yrotation
					End Site
					{
						OFFSET 0.000000 3.130435 0.000000 
					}
				}
			}
			JOINT lCollar
			{
				OFFSET 3.470700 6.669187 -0.816635 
				CHANNELS 3 Yrotation Zrotation Xrotation
				JOINT lShldr
				{
					OFFSET 3.198488 0.000000 0.000000 
					CHANNELS 3 Zrotation Yrotation Xrotation
					JOINT lForeArm
					{
						OFFSET 10.139888 0.000000 0.000000 
						CHANNELS 3 Yrotation Zrotation Xrotation
						JOINT lHand
						{
							OFFSET 8.370511 0.000000 0.000000 
							CHANNELS 3 Zrotation Yrotation Xrotation
							End Site
							{
								OFFSET 4.083176 0.000000 0.000000 
							}
						}
					}
				}
			}
			JOINT rCollar
			{
				OFFSET -3.470700 6.669187 -0.816635 
				CHANNELS 3 Yrotation Zrotation Xrotation
				JOINT rShldr
				{
					OFFSET -3.198488 0.000000 0.000000 
					CHANNELS 3 Zrotation Yrotation Xrotation
					JOINT rForeArm
					{
						OFFSET -10.139888 0.000000 0.000000 
						CHANNELS 3 Yrotation Zrotation Xrotation
						JOINT rHand
						{
							OFFSET -8.370511 0.000000 0.000000 
							CHANNELS 3 Zrotation Yrotation Xrotation
							End Site
							{
								OFFSET -4.083176 0.000000 0.000000 
							}
						}
					}
				}
			}
		}
	}
	JOINT lThigh
	{
		OFFSET 5.308129 -1.633274 1.361059 
		CHANNELS 3 Xrotation Zrotation Yrotation
		JOINT lShin
		{
			OFFSET -2.041588 -20.007561 0.000000 
			CHANNELS 3 Xrotation Zrotation Yrotation
			JOINT lFoot
			{
				OFFSET 0.000000 -19.190928 -1.224953 
				CHANNELS 3 Xrotation Yrotation Zrotation
				End Site
				{
					OFFSET 0.000000 -2.449906 4.627600 
				}
			}
		}
	}
	JOINT rThigh
	{
		OFFSET -5.308129 -1.633274 1.361059 
		CHANNELS 3 Xrotation Zrotation Yrotation
		JOINT rShin
		{
			OFFSET 2.041588 -20.007561 0.000000 
			CHANNELS 3 Xrotation Zrotation Yrotation
			JOINT rFoot
			{
				OFFSET 0.000000 -19.190928 -1.224953 
				CHANNELS 3 Xrotation Yrotation Zrotation
				End Site
				{
					OFFSET 0.000000 -2.449906 4.627600 
				}
			}
		}
	}
}
MOTION
Frames: 13
Frame Time: 0.033333
-0.629773 48.352741 6.581821 9.608923 -4.419785 19.574755 46.694859 11.048899 -11.875264 -20.839844 0.000000 0.000000 -0.408800 13.281432 -1.738868 -2.520848 -1.255046 0.218349 -4.754608 -0.109225 -0.002657 -67.617462 -21.889172 15.344862 -23.566483 -13.991202 18.677174 -8.073729 17.344803 -17.589628 4.754608 0.109225 -0.002676 82.299980 -5.809712 0.585089 62.314102 16.132772 17.210445 3.523097 -38.234623 10.341925 -49.726059 15.576309 2.406588 60.218601 -2.801924 -8.726901 -24.092913 -7.535122 -3.285162 -38.083984 -23.962980 -14.524677 62.123425 14.432183 1.916559 -27.350782 7.273514 -5.012372 
-1.152359 47.766876 6.017076 14.207294 -4.620506 20.628376 48.281574 11.006964 -10.452996 -20.839844 0.000000 0.000000 -6.036422 13.522128 -3.907224 -2.520848 -1.255046 0.218349 -4.754608 -0.109225 -0.002657 -69.341133 -27.876614 17.008709 -24.589499 -13.623169 18.161516 -8.454443 16.391331 -15.843515 4.754608 0.109225 -0.002676 77.071205 0.353126 2.874279 62.886623 17.411070 17.158508 1.012163 -38.253353 10.493021 -56.777565 14.811479 2.376417 62.031155 -3.628443 -6.349752 -24.437906 -4.375212 -3.693791 -45.125454 -26.151112 -13.665687 64.391541 14.628139 2.334433 -27.140930 6.794684 -3.819871 
-1.684210 47.020081 5.506757 18.920156 -4.925277 21.048220 49.268074 10.815605 -9.878399 -20.839844 0.000000 0.000000 -12.056551 13.696206 -4.922451 -2.520848 -1.255046 0.218349 -4.754608 -0.109225 -0.002657 -70.484299 -34.297287 19.458878 -25.071878 -13.697503 17.865557 -8.863788 15.767653 -15.627164 4.754608 0.109225 -0.002676 72.701828 7.779494 4.377657 62.608505 17.289091 17.792879 -0.197393 -38.303486 11.774417 -63.625378 15.202891 2.726922 63.809254 -4.829484 -3.672660 -24.539669 -0.861511 -3.951858 -52.673176 -28.298695 -12.545642 67.173721 14.989281 3.175469 -27.115881 6.981236 -3.429393 
-2.174815 46.061581 5.059800 23.604561 -5.336270 21.558691 49.637878 10.809508 -9.630076 -20.839844 0.000000 0.000000 -19.039049 13.397438 -5.512382 -2.520848 -1.255046 0.218349 -4.754608 -0.109225 -0.002657 -71.790779 -40.197868 22.048716 -25.702436 -13.893364 17.599911 -8.999182 15.707439 -15.477695 4.754608 0.109225 -0.002676 68.773239 15.377995 4.723627 62.097267 16.064758 18.596874 -0.573057 -38.259521 13.693221 -70.183540 15.878554 3.053995 65.294899 -6.156694 -2.084426 -22.966772 1.058912 -4.922003 -61.043751 -30.067585 -10.585381 70.878342 14.843608 3.837567 -27.734175 6.527325 -3.534723 
-2.601211 44.889343 4.694651 28.129295 -5.689355 22.102438 49.568668 10.712634 -9.729249 -20.839844 0.000000 0.000000 -26.032858 13.033598 -6.088574 -2.520848 -1.255046 0.218349 -4.754608 -0.109225 -0.002657 -73.885864 -45.926189 25.044945 -25.421066 -13.461708 17.401419 -9.413770 15.725654 -15.213221 4.754608 0.109225 -0.002676 65.167908 23.111216 4.455747 60.924133 14.366244 19.786974 -1.739307 -38.244335 16.556799 -76.431679 16.893370 3.625190 67.075058 -8.042796 -1.785045 -20.784601 0.793415 -5.592485 -70.067162 -31.210335 -7.750620 75.249924 13.895735 4.220629 -28.937685 5.043409 -3.210281 
-3.027022 43.547550 4.409340 32.013153 -6.303091 22.537409 49.472839 10.678830 -9.668184 -20.839844 0.000000 0.000000 -31.726851 12.590755 -6.881663 -2.520848 -1.255046 0.218349 -4.754608 -0.109225 -0.002657 -77.225906 -52.427876 30.358088 -23.546762 -12.079595 17.337423 -10.703007 15.279915 -17.129404 4.754608 0.109225 -0.002676 60.816059 30.665934 3.731370 59.255939 13.198175 20.768179 -3.431699 -37.993717 18.741993 -82.718628 18.328356 3.982400 69.827118 -9.956483 -2.309178 -19.278536 -0.538822 -5.003932 -78.732269 -31.353338 -4.805404 79.814522 12.654600 4.415951 -30.049650 3.298784 -2.656302 
-3.440031 42.109295 4.174137 34.840496 -7.369372 23.227745 49.494625 11.039460 -8.846842 -20.839844 0.000000 0.000000 -36.262390 11.489154 -8.105874 -2.520848 -1.255046 0.218349 -4.754608 -0.109225 -0.002657 -84.275673 -58.446419 40.435860 -20.549370 -9.267284 18.373968 -12.585866 15.099503 -21.268122 4.754608 0.109225 -0.002676 55.316261 37.133869 1.841688 57.065434 12.244419 21.580360 -5.042369 -37.864414 20.311646 -89.123344 19.109119 3.465886 73.339684 -10.669752 -3.190567 -18.408512 -1.421351 -4.135252 -86.101082 -31.268562 -2.525510 84.585724 11.766904 4.598400 -31.264473 2.027328 -2.746884 
-3.811265 40.596405 4.005759 37.241180 -8.202888 23.955633 48.906876 11.262161 -8.049205 -20.839844 0.000000 0.000000 -40.082142 10.108805 -9.683861 -2.520848 -1.255046 0.218349 -4.754608 -0.109225 -0.002657 -95.878006 -63.016903 54.888588 -16.249796 -6.154530 20.236769 -14.402679 15.678456 -25.683283 4.754608 0.109225 -0.002676 49.383739 41.597496 -1.069921 54.741112 11.333347 23.168015 -5.968778 -38.070797 22.749695 -95.257408 19.129253 2.614696 77.131294 -10.602468 -4.142950 -18.000805 -1.791967 -4.179962 -93.028038 -31.470858 -0.336901 89.564682 10.917280 4.983871 -32.770214 1.183240 -3.135509 
-4.173069 39.026150 3.871726 39.221199 -8.568345 24.823349 48.061684 11.129175 -7.316435 -20.839844 0.000000 0.000000 -43.861004 8.329141 -11.111117 -2.520848 -1.255046 0.218349 -4.754608 -0.109225 -0.002657 -110.737823 -64.828529 70.643433 -11.705569 -3.278800 21.994247 -15.515246 17.413076 -27.781805 4.754608 0.109225 -0.002676 43.277836 43.513573 -4.604143 52.891586 10.673350 25.440542 -6.811018 -38.006760 26.179375 -100.898254 18.603876 1.761642 81.048958 -10.136008 -4.855264 -17.726152 -1.696728 -4.305701 -99.590752 -31.725252 1.968445 94.574280 9.823541 5.254182 -34.287907 0.288708 -3.098606 
-4.503875 37.452850 3.775445 40.330555 -8.910020 25.916985 47.411125 10.966339 -6.191237 -20.839844 0.000000 0.000000 -46.375732 6.348604 -11.992184 -2.520848 -1.255046 0.218349 -4.754608 -0.109225 -0.002657 -123.068001 -63.964066 81.783127 -9.000457 -1.508723 22.492207 -14.894204 19.996778 -27.661098 4.754608 0.109225 -0.002676 38.887905 43.540813 -8.085648 51.520969 9.273937 27.998596 -7.221667 -37.516689 30.960926 -105.968666 17.576265 0.862726 85.007210 -9.042196 -5.143411 -17.462219 -0.997225 -4.522609 -105.034264 -32.273746 3.926553 99.545937 9.003549 5.562492 -35.895252 -0.422083 -3.124279 
-4.798039 35.936405 3.763317 40.996571 -9.183224 26.661701 47.025070 10.777746 -5.329234 -20.839844 0.000000 0.000000 -46.537609 5.301250 -12.273467 -2.520848 -1.255046 0.218349 -4.754608 -0.109225 -0.002657 50.363220 -116.849998 -92.681702 -8.337505 -1.412013 22.620564 -13.523000 21.312481 -26.425993 4.754608 0.109225 -0.002676 35.812458 42.982601 -10.602537 50.748222 8.252040 30.383356 -6.937796 -37.078876 35.175442 -110.541725 16.698397 -0.089422 88.816154 -7.704831 -5.215607 -17.389784 -0.142392 -5.113406 -109.626007 -32.557667 5.438627 104.221832 8.388380 5.925151 -37.456444 -0.707657 -3.591103 
-5.061530 34.580383 3.773602 40.843159 -9.369892 27.299931 48.030083 10.736516 -4.818223 -20.839844 0.000000 0.000000 -46.289547 5.457405 -12.486625 -2.520848 -1.255046 0.218349 -4.754608 -0.109225 -0.002657 46.873814 -116.952538 -89.106857 -8.558653 -1.321840 23.219563 -12.460104 21.240654 -25.444735 4.754608 0.109225 -0.002676 32.649857 43.221687 -12.297475 49.324451 8.169518 31.764687 -8.195484 -36.984489 37.109081 -114.067940 16.034740 -1.000248 92.205437 -6.328571 -5.347247 -16.978500 0.105337 -4.800627 -112.808464 -32.567169 6.458414 108.396233 7.841755 6.216759 -38.910564 -0.911873 -4.292026 
-5.257581 33.420849 3.801687 39.896645 -9.744454 28.097408 49.580048 11.135790 -4.036721 -20.839844 0.000000 0.000000 -46.419533 5.724502 -12.576768 -2.520848 -1.255046 0.218349 -4.754608 -0.109225 -0.002657 45.273117 -116.892647 -87.281731 -9.136474 -1.825116 23.543303 -11.312696 21.370028 -24.918600 4.754608 0.109225 -0.002676 30.905523 43.631981 -12.992475 47.443802 8.252631 32.266739 -13.315393 -37.168468 38.635376 -116.641342 15.057398 -1.756843 95.058037 -4.639566 -5.402818 -16.566977 0.193437 -4.391469 -114.621788 -32.741882 7.042298 112.143845 7.402068 6.283603 -40.334682 -1.149809 -5.497506 
